HIERARCHY
ROOT Hip
{
  OFFSET 0.0 0.0 0.0
  CHANNELS 6 Xposition Yposition Zposition Xrotation Yrotation Zrotation
  JOINT LowerSpine
  {
    OFFSET 0.0 0.061367 -0.03653
    CHANNELS 3 Xrotation Yrotation Zrotation
    JOINT MiddleSpine
    {
      OFFSET 0.0 0.056002 0.002633
      CHANNELS 3 Xrotation Yrotation Zrotation
      JOINT Chest
      {
        OFFSET 0.0 0.069296 -0.013882
        CHANNELS 3 Xrotation Yrotation Zrotation
        JOINT Neck
        {
          OFFSET 0.0 0.156156 -0.002923
          CHANNELS 3 Xrotation Yrotation Zrotation
          JOINT Head
          {
            OFFSET 0.0 0.088183 0.023986
            CHANNELS 3 Xrotation Yrotation Zrotation
            End Site
            {
              OFFSET 1e-06 0.123215 0.003678
            }
          }
        }
        JOINT LClavicle
        {
          OFFSET 0.014189 0.150698 0.046467
          CHANNELS 3 Xrotation Yrotation Zrotation
          JOINT LShoulder
          {
            OFFSET 0.082893 0.021616 -0.034976
            CHANNELS 3 Xrotation Yrotation Zrotation
            JOINT LForearm
            {
              OFFSET 0.195645 -0.000695 -0.001695
              CHANNELS 3 Xrotation Yrotation Zrotation
              JOINT LHand
              {
                OFFSET 0.163209 0.000474 -0.000977
                CHANNELS 3 Xrotation Yrotation Zrotation
                End Site
                {
                  OFFSET 0.0 0.006864 0.0
                }
              }
            }
          }
        }
        JOINT RClavicle
        {
          OFFSET -0.014189 0.150698 0.046467
          CHANNELS 3 Xrotation Yrotation Zrotation
          JOINT RShoulder
          {
            OFFSET -0.082908 0.021619 -0.034982
            CHANNELS 3 Xrotation Yrotation Zrotation
            JOINT RForearm
            {
              OFFSET -0.195645 -0.000695 -0.001695
              CHANNELS 3 Xrotation Yrotation Zrotation
              JOINT RHand
              {
                OFFSET -0.163209 0.000474 -0.000977
                CHANNELS 3 Xrotation Yrotation Zrotation
                End Site
                {
                  OFFSET 0.0 0.006864 0.0
                }
              }
            }
          }
        }
      }
    }
  }
  JOINT RThigh
  {
    OFFSET -0.072558 0.02774 -0.005953
    CHANNELS 3 Xrotation Yrotation Zrotation
    JOINT RShin
    {
      OFFSET -0.005253 -0.285537 0.0
      CHANNELS 3 Xrotation Yrotation Zrotation
      JOINT RFoot
      {
        OFFSET 0.0 -0.28038 0.0
        CHANNELS 3 Xrotation Yrotation Zrotation
        JOINT RToe
        {
          OFFSET 0.0 -0.030816 0.064441
          CHANNELS 3 Xrotation Yrotation Zrotation
          End Site
          {
            OFFSET 0.0 0.0 0.043231
          }
        }
      }
    }
  }
  JOINT LThigh
  {
    OFFSET 0.072557 0.027741 -0.005953
    CHANNELS 3 Xrotation Yrotation Zrotation
    JOINT LShin
    {
      OFFSET 0.005253 -0.285539 0.0
      CHANNELS 3 Xrotation Yrotation Zrotation
      JOINT LFoot
      {
        OFFSET 0.0 -0.28038 0.0
        CHANNELS 3 Xrotation Yrotation Zrotation
        JOINT LToe
        {
          OFFSET 0.0 -0.030816 0.064441
          CHANNELS 3 Xrotation Yrotation Zrotation
          End Site
          {
            OFFSET 0.0 0.0 0.043231
          }
        }
      }
    }
  }
}
MOTION
Frames: 6
Frame Time: 0.03333333333333333
-0.023367 0.566463 -0.00589 5.265377 -2.902347 2.818539 0.738585 -0.073701 0.424147 0.754247 1.490079 0.115719 -1.920033 2.333156 -2.810109 -0.091544 0.063009 -0.174569 0.058246 -0.177433 -0.067983 -0.22713 -0.794503 -9.742965 14.399652 -30.161552 -44.70874 7.593216 -67.929184 1.475493 0.105611 0.197155 -0.119452 -0.874252 -0.277812 11.750877 10.370032 39.242607 54.742428 6.569845 48.719719 0.738519 -0.045787 -0.224325 -0.01391 -11.4143 -2.28851 -1.785304 15.867698 -1.583037 1.143944 -2.520047 1.162207 0.235019 -0.091016 0.369895 0.128896 -6.810731 11.495934 5.027713 15.965596 9.371497 -7.267082 -1.362035 -0.927589 -0.013392 0.100765 -0.115481 -0.009767 
-0.024965 0.564536 -0.011591 4.287735 -2.769156 3.163318 0.87518 -0.089178 0.446165 0.641749 1.449058 0.160029 -2.02716 2.411877 -3.008903 0.0865 0.093635 -0.108866 0.048279 -0.207208 -0.065646 -0.484114 -1.011988 -9.699541 15.992113 -28.93858 -44.756336 9.049809 -68.057297 1.338555 0.101691 0.189429 -0.115245 -1.004444 -0.20281 11.722261 11.279678 39.236294 54.366142 7.813338 49.181377 1.087506 -0.080347 -0.190479 -0.014467 -11.559443 -2.159518 -2.084913 16.438982 -1.39501 1.060212 -2.275623 1.078569 0.193289 -0.110892 0.339643 0.13198 -5.941956 12.270062 5.049959 15.42293 9.68325 -7.667006 -1.478689 -0.927511 -0.021563 0.0916 -0.110723 -0.014422 
-0.026975 0.561847 -0.020343 3.151998 -2.109587 3.437679 1.045576 -0.114263 0.470191 0.484661 1.394175 0.183574 -2.299517 2.488719 -3.244019 0.333217 0.102872 -0.034778 0.040095 -0.227657 -0.060561 -0.795266 -1.274059 -9.598065 17.189714 -27.532484 -45.122128 10.309859 -67.853043 1.075933 0.090359 0.16908 -0.100697 -1.201023 0.129141 11.639626 11.792279 39.008049 54.362598 9.12793 49.490467 1.533557 -0.113749 -0.145446 -0.013187 -11.833028 -2.025274 -2.36979 17.169857 -1.179217 1.022344 -2.149904 0.982369 0.147467 -0.133205 0.281653 0.125339 -5.340723 13.223644 5.0405 14.904887 10.024774 -7.945777 -1.632856 -0.902925 -0.043235 0.079544 -0.100543 -0.015056 
-0.027078 0.559845 -0.033857 2.31184 -1.947488 3.359528 1.266358 -0.144558 0.46798 0.33817 1.344571 0.199371 -2.340787 2.710782 -3.349158 0.622252 0.125347 0.04982 0.036553 -0.244937 -0.055393 -1.084512 -1.550119 -9.527613 17.214558 -26.545824 -46.491383 11.456407 -66.200203 1.16839 0.078001 0.154743 -0.084722 -1.43842 0.584341 11.527484 11.00523 38.911095 55.019276 9.615216 48.631977 1.810722 -0.149483 -0.102545 -0.012871 -12.609937 -1.937497 -2.296088 17.904291 -1.018742 0.951675 -2.12231 0.84323 0.069794 -0.147641 0.232387 0.121726 -5.493526 13.831878 5.043049 14.034686 10.04831 -7.888117 -1.846897 -0.831678 -0.042531 0.074194 -0.090209 -0.015639 
-0.027055 0.558749 -0.049245 1.819211 -1.879929 3.067943 1.474894 -0.185817 0.442741 0.110582 1.242663 0.224518 -2.326394 2.910533 -3.420375 0.961538 0.19003 0.154733 0.036478 -0.269252 -0.047577 -1.34042 -1.796436 -9.43871 16.740295 -25.315298 -48.652122 12.006559 -63.055336 1.399449 0.069389 0.145683 -0.069534 -1.668035 1.078873 11.480145 9.445441 38.572578 56.610256 9.384402 47.099033 2.150626 -0.196095 -0.061609 -0.014326 -14.27561 -1.904992 -1.961424 19.011768 -0.937808 0.866393 -2.13526 0.635613 -0.048272 -0.155565 0.195432 0.122654 -6.502182 14.122035 5.061227 13.120786 9.920334 -7.598788 -2.067222 -0.668461 0.043224 0.075496 -0.088064 -0.021233 
-0.0274 0.55739 -0.047155 1.575923 -1.93227 2.655844 1.535647 -0.220484 0.430852 0.004854 1.184627 0.260864 -2.48435 2.901895 -3.468824 1.093471 0.223922 0.195576 0.037437 -0.287068 -0.044714 -1.446769 -1.924973 -9.486102 16.694866 -24.979546 -49.408916 12.068366 -60.915043 1.574597 0.069034 0.144804 -0.067065 -1.761442 1.274417 11.432707 9.298741 38.022533 57.144337 9.507907 48.107498 2.309247 -0.224819 -0.043984 -0.016614 -14.893281 -2.018898 -1.71643 19.265406 -0.969345 0.813969 -2.01288 0.552683 -0.090895 -0.160948 0.181007 0.12335 -6.556753 14.151708 5.034946 12.442297 9.782937 -7.401103 -2.236242 -0.570088 0.11039 0.07689 -0.092584 -0.025979 
